<svg height="512pt" viewBox="0 0 512 512" width="512pt" xmlns="http://www.w3.org/2000/svg" xmlns:xlink="http://www.w3.org/1999/xlink"><linearGradient id="a" gradientUnits="userSpaceOnUse" x1="0" x2="512" y1="256" y2="256"><stop offset="0" stop-color="#00f1ff"/><stop offset=".231" stop-color="#00d8ff"/><stop offset=".5138" stop-color="#00c0ff"/><stop offset=".7773" stop-color="#00b2ff"/><stop offset="1" stop-color="#00adff"/></linearGradient><path d="m512 256c0 141.386719-114.613281 256-256 256s-256-114.613281-256-256 114.613281-256 256-256 256 114.613281 256 256zm0 0" fill="url(#a)"/><g fill="#fff"><path d="m274.820312 376.074219h-97.875c-12.484374 0-22.644531-10.160157-22.644531-22.644531v-145.546876l95.792969-95.605468c3.75-3.125 9.191406-3.121094 12.933594.007812l71.6875 72.855469c5.808594 5.902344 15.304687 5.980469 21.210937.171875 5.90625-5.8125 5.980469-15.308594.171875-21.214844l-72.082031-73.257812c-.21875-.222656-.441406-.433594-.671875-.640625-15.207031-13.65625-38.1875-13.703125-53.449219-.113281-.210937.191406-.417969.386718-.621093.585937l-131.9375 131.679687c-5.863282 5.851563-5.871094 15.347657-.019532 21.210938 2.929688 2.9375 6.773438 4.40625 10.617188 4.40625 3.832031 0 7.667968-1.460938 10.59375-4.382812l5.777344-5.765626v115.609376c0 29.027343 23.613281 52.644531 52.644531 52.644531h97.875c8.28125 0 15-6.714844 15-15-.003907-8.285157-6.71875-15-15.003907-15zm0 0"/><path d="m404.066406 286.980469h-12.578125v-13.917969h12.578125c8.285156 0 15-6.714844 15-15 0-8.28125-6.714844-15-15-15h-12.625c-.933594-21.257812-18.515625-38.269531-40.003906-38.269531-22.148438 0-40.167969 17.96875-40.167969 40.050781v68.609375c-9.441406 10.242187-14.917969 23.808594-14.917969 37.539063 0 30.371093 24.710938 55.082031 55.085938 55.082031 30.371094 0 55.082031-24.710938 55.082031-55.082031 0-12.191407-4.359375-24.265626-11.992187-34.011719h9.539062c8.285156 0 15-6.714844 15-15 0-8.28125-6.714844-15-15-15zm-52.628906 89.09375c-13.832031 0-25.085938-11.253907-25.085938-25.082031 0-7.347657 3.546876-14.671876 9.484376-19.589844 3.441406-2.847656 5.433593-7.082032 5.433593-11.550782v-75.007812c0-5.542969 4.558594-10.050781 10.167969-10.050781 5.542969 0 10.050781 4.507812 10.050781 10.050781v74.972656c0 4.472656 1.996094 8.714844 5.449219 11.566406 6 4.953126 9.582031 12.28125 9.582031 19.605469 0 13.832031-11.253906 25.085938-25.082031 25.085938zm0 0"/><path d="m363.914062 350.921875c0 6.929687-5.617187 12.546875-12.546874 12.546875-6.929688 0-12.550782-5.617188-12.550782-12.546875 0-6.933594 5.621094-12.550781 12.550782-12.550781 6.929687 0 12.546874 5.617187 12.546874 12.550781zm0 0"/></g></svg>